<svg id="Calque_1" data-name="Calque 1" xmlns="http://www.w3.org/2000/svg" xmlns:xlink="http://www.w3.org/1999/xlink" viewBox="0 0 1947.54 547.29"><defs><style>.cls-1,.cls-3{fill:#fff;}.cls-1{opacity:0.7;}.cls-2{fill:url(#Dégradé_sans_nom_28);}.cls-4{fill:url(#Dégradé_sans_nom_16);}.cls-5{fill:url(#Dégradé_sans_nom_16-2);}.cls-6{fill:url(#Dégradé_sans_nom_16-3);}.cls-7{fill:url(#Dégradé_sans_nom_16-4);}.cls-8{fill:url(#Dégradé_sans_nom_16-5);}.cls-10,.cls-9{stroke:#000;stroke-miterlimit:10;stroke-width:0.75px;}.cls-10{fill:none;}</style><linearGradient id="Dégradé_sans_nom_28" x1="984.42" y1="444.45" x2="690.84" y2="444.45" gradientUnits="userSpaceOnUse"><stop offset="0" stop-color="#19ffd8" stop-opacity="0.7"/><stop offset="0.5" stop-color="#7727d4" stop-opacity="0.7"/><stop offset="1" stop-color="#d200ab" stop-opacity="0.7"/></linearGradient><linearGradient id="Dégradé_sans_nom_16" x1="945.41" y1="339.83" x2="1614.91" y2="1009.34" gradientUnits="userSpaceOnUse"><stop offset="0" stop-color="#19ffd8"/><stop offset="0.48" stop-color="#7727d4"/><stop offset="1" stop-color="#d200ab"/></linearGradient><linearGradient id="Dégradé_sans_nom_16-2" x1="1066.83" y1="218.85" x2="1735.39" y2="887.4" xlink:href="#Dégradé_sans_nom_16"/><linearGradient id="Dégradé_sans_nom_16-3" x1="1191.55" y1="93.69" x2="1861.06" y2="763.19" xlink:href="#Dégradé_sans_nom_16"/><linearGradient id="Dégradé_sans_nom_16-4" x1="1263.34" y1="23.57" x2="1931.39" y2="691.63" xlink:href="#Dégradé_sans_nom_16"/><linearGradient id="Dégradé_sans_nom_16-5" x1="1348.25" y1="-60.75" x2="2016.43" y2="607.43" xlink:href="#Dégradé_sans_nom_16"/></defs><path d="M0,445.55a70.65,70.65,0,0,1,71.24-71.24,69,69,0,0,1,32.21,7.83,73.39,73.39,0,0,1,21.48,16.61,1.89,1.89,0,0,0,3.31-1.26V350.56a1.9,1.9,0,0,1,1.9-1.9h10.45a1.9,1.9,0,0,1,1.9,1.9v95A70.83,70.83,0,0,1,71.24,516.8,70.66,70.66,0,0,1,0,445.55Zm14.25,0a54.44,54.44,0,0,0,4.56,22.09A57.83,57.83,0,0,0,49.16,498a55.76,55.76,0,0,0,44.17,0,57.83,57.83,0,0,0,30.35-30.35,55.76,55.76,0,0,0,0-44.17,57.74,57.74,0,0,0-30.35-30.35,55.76,55.76,0,0,0-44.17,0,57.74,57.74,0,0,0-30.35,30.35A54.36,54.36,0,0,0,14.25,445.55Z"/><path d="M230.83,502.55q18.24,0,32.2-9.69a56.55,56.55,0,0,0,20.31-25.42.84.84,0,0,1,.77-.52H298a.85.85,0,0,1,.8,1.13,73.77,73.77,0,0,1-10,18.82,71.93,71.93,0,0,1-15.67,15.68A77.29,77.29,0,0,1,253.34,513a66.86,66.86,0,0,1-22.51,3.85,71.55,71.55,0,1,1,71.24-71.25v6.29a.84.84,0,0,1-.84.84H174.84a.85.85,0,0,0-.84,1,60.72,60.72,0,0,0,6.53,18.95,54.92,54.92,0,0,0,12.68,15.68,62.15,62.15,0,0,0,17.25,10.4A54,54,0,0,0,230.83,502.55Zm0-114a54,54,0,0,0-20.37,3.84,62.43,62.43,0,0,0-17.25,10.41,54.41,54.41,0,0,0-12.68,15.81A62.7,62.7,0,0,0,174,437.44a.86.86,0,0,0,.84,1h112a.85.85,0,0,0,.84-1,63,63,0,0,0-6.53-18.82,54.58,54.58,0,0,0-12.68-15.81,61.88,61.88,0,0,0-17.39-10.41A54.41,54.41,0,0,0,230.83,388.56Z"/><path d="M332.79,516.8H320a.85.85,0,0,1-.84-.84V375.15a.84.84,0,0,1,.84-.84H332.3a.84.84,0,0,1,.84.84V496.53a.84.84,0,0,0,1.43.6l126.5-126.22a.84.84,0,0,1,1.19,0l8.49,8.5a.84.84,0,0,1,0,1.19L333.38,516.55A.83.83,0,0,1,332.79,516.8Z"/><path d="M548.29,502.55q18.24,0,32.2-9.69a56.55,56.55,0,0,0,20.31-25.42.84.84,0,0,1,.77-.52h13.92a.85.85,0,0,1,.8,1.13,73.77,73.77,0,0,1-10,18.82,71.93,71.93,0,0,1-15.67,15.68A77.29,77.29,0,0,1,570.8,513a66.86,66.86,0,0,1-22.51,3.85,71.55,71.55,0,1,1,71.24-71.25v6.29a.84.84,0,0,1-.84.84H492.3a.85.85,0,0,0-.84,1A60.72,60.72,0,0,0,498,472.62a54.92,54.92,0,0,0,12.68,15.68,62.25,62.25,0,0,0,17.24,10.4A54.13,54.13,0,0,0,548.29,502.55Zm0-114a54.12,54.12,0,0,0-20.38,3.84,62.52,62.52,0,0,0-17.24,10.41A54.41,54.41,0,0,0,498,418.62a62.7,62.7,0,0,0-6.53,18.82.86.86,0,0,0,.84,1h112a.85.85,0,0,0,.84-1,63,63,0,0,0-6.53-18.82,54.58,54.58,0,0,0-12.68-15.81,61.88,61.88,0,0,0-17.39-10.41A54.41,54.41,0,0,0,548.29,388.56Z"/><path d="M636.63,516V349.5a.85.85,0,0,1,.84-.84H650a.85.85,0,0,1,.84.84V516a.85.85,0,0,1-.84.84H637.47A.85.85,0,0,1,636.63,516Z"/><rect class="cls-1" x="690.84" y="360.15" width="293.58" height="168.6" rx="82.71"/><rect class="cls-2" x="690.84" y="360.15" width="293.58" height="168.6" rx="82.71"/><circle class="cls-3" cx="900.09" cy="444.45" r="70.55"/><path class="cls-4" d="M1139.16,396.32A76.78,76.78,0,0,0,1116,380.86a69.68,69.68,0,0,0-28-5.69A72.5,72.5,0,0,0,1015,448.1v98.27a.92.92,0,0,0,.92.92h12.74a.92.92,0,0,0,.92-.92V494.52a.92.92,0,0,1,1.63-.58A75.73,75.73,0,0,0,1054.42,513q14.88,8,33.55,8a69.51,69.51,0,0,0,28-5.69,76.6,76.6,0,0,0,23.19-15.46,72.24,72.24,0,0,0,15.9-23,73.27,73.27,0,0,0,0-57.33A72,72,0,0,0,1139.16,396.32Zm2.48,74.39a59.12,59.12,0,0,1-31.06,31.07,57.07,57.07,0,0,1-45.22,0,59.1,59.1,0,0,1-31.07-31.07,57.07,57.07,0,0,1,0-45.22,59.12,59.12,0,0,1,31.07-31.06,57.07,57.07,0,0,1,45.22,0,59.15,59.15,0,0,1,31.06,31.06,57.07,57.07,0,0,1,0,45.22Z"/><path class="cls-5" d="M1434.38,396.32a73.28,73.28,0,0,0-51.78-21.15,68.87,68.87,0,0,0-20.42,3.06,75.18,75.18,0,0,0-18.52,8.61,79.42,79.42,0,0,0-15.46,13,70.34,70.34,0,0,0-10.42,14.62.91.91,0,0,1-1.62,0,72.73,72.73,0,0,0-10.28-14.62,77.66,77.66,0,0,0-15.17-13,72.09,72.09,0,0,0-18.52-8.61,71.35,71.35,0,0,0-20.86-3.06,69.76,69.76,0,0,0-28,5.69,76.91,76.91,0,0,0-23.19,15.46,72,72,0,0,0-15.9,23.19,70.94,70.94,0,0,0-5.83,28.59v72a.92.92,0,0,0,.92.92h12.74a.93.93,0,0,0,.93-.92v-72a55.78,55.78,0,0,1,4.66-22.61,59.22,59.22,0,0,1,31.07-31.06,57.07,57.07,0,0,1,45.22,0A59.22,59.22,0,0,1,1305,425.49a55.78,55.78,0,0,1,4.66,22.61v72a.93.93,0,0,0,.93.92h12.74a.92.92,0,0,0,.92-.92v-72a55.62,55.62,0,0,1,4.67-22.61A59.12,59.12,0,0,1,1360,394.43a57,57,0,0,1,45.21,0,59.12,59.12,0,0,1,31.07,31.06A55.78,55.78,0,0,1,1441,448.1v72a.92.92,0,0,0,.92.92h12.74a.92.92,0,0,0,.92-.92v-72a73.17,73.17,0,0,0-21.15-51.78Z"/><path class="cls-6" d="M1597.75,396.32A73.28,73.28,0,1,0,1546,521a68.2,68.2,0,0,0,23-3.94,79,79,0,0,0,20.28-10.64,73.77,73.77,0,0,0,16-16.05,75.33,75.33,0,0,0,10.21-19.18.93.93,0,0,0-.87-1.24h-14.12a.93.93,0,0,0-.85.57,57.87,57.87,0,0,1-20.77,26q-14.29,9.92-33,9.92a55.34,55.34,0,0,1-20.86-3.94,63.65,63.65,0,0,1-17.65-10.65,56.37,56.37,0,0,1-13-16,62.38,62.38,0,0,1-6.68-19.34.93.93,0,0,1,.92-1.08H1618a.93.93,0,0,0,.92-.93V448.1a73.28,73.28,0,0,0-21.15-51.78Zm-109,44.49a.93.93,0,0,1-.91-1.09,64,64,0,0,1,6.67-19.19,55.94,55.94,0,0,1,13-16.19,63.62,63.62,0,0,1,17.65-10.64,56.79,56.79,0,0,1,41.57,0,63.09,63.09,0,0,1,17.79,10.64,56.14,56.14,0,0,1,13,16.19,64.54,64.54,0,0,1,6.67,19.19.94.94,0,0,1-.92,1.09Z"/><path class="cls-7" d="M1760.53,396.91a76.39,76.39,0,0,0-23.19-15.9,68.22,68.22,0,0,0-28-5.84A70.55,70.55,0,0,0,1680.6,381a72.18,72.18,0,0,0-23,15.9,76.72,76.72,0,0,0-15.46,23.19,69.68,69.68,0,0,0-5.69,28v72a.92.92,0,0,0,.92.92h12.75a.92.92,0,0,0,.92-.92v-72a55.78,55.78,0,0,1,4.66-22.61,59.22,59.22,0,0,1,31.07-31.06,57.07,57.07,0,0,1,45.22,0A59.22,59.22,0,0,1,1763,425.49a55.78,55.78,0,0,1,4.66,22.61v72a.93.93,0,0,0,.93.92h12.74a.92.92,0,0,0,.92-.92v-72a68.13,68.13,0,0,0-5.83-28A76.57,76.57,0,0,0,1760.53,396.91Z"/><path class="cls-8" d="M1926.37,470.71a59.1,59.1,0,0,1-31.07,31.07,57.07,57.07,0,0,1-45.22,0A59.12,59.12,0,0,1,1819,470.71a55.55,55.55,0,0,1-4.67-22.61V419.85a.92.92,0,0,1,.92-.92h37.54a.92.92,0,0,0,.92-.92V405.27a.93.93,0,0,0-.92-.93h-37.54a.92.92,0,0,1-.92-.92V354.21a.92.92,0,0,0-.92-.92h-12.75a.92.92,0,0,0-.92.92V448.1A72.33,72.33,0,0,0,1872.69,521a69.56,69.56,0,0,0,28-5.69,76.72,76.72,0,0,0,23.19-15.46,72.24,72.24,0,0,0,15.9-23,70.5,70.5,0,0,0,5.83-27.8.94.94,0,0,0-.93-.94h-12.75a.92.92,0,0,0-.91.91A55.55,55.55,0,0,1,1926.37,470.71Z"/><path class="cls-9" d="M204.26,207.61c-.57,42.5-36,76.3-78.52,76.3H4.63a0,0,0,0,1,0-.05V.42a0,0,0,0,1,0,0h113a74.59,74.59,0,0,1,74.53,74.53c0,27.5-14.54,50.16-36.36,61.92a0,0,0,0,0,0,.09C184.37,148,204.71,174.76,204.26,207.61ZM26.05,20.68V129.13a0,0,0,0,0,.05.05h91.49c29.16,0,53.06-24.3,53.06-54.27s-23.9-54.28-53.06-54.28H26.1A0,0,0,0,0,26.05,20.68ZM182.8,206.55c0-31.6-25.11-57.11-55.89-57.11H26.1a0,0,0,0,0-.05,0V263.61a0,0,0,0,0,.05.05H126.91C157.69,263.66,182.8,238.14,182.8,206.55Z"/><path class="cls-9" d="M405.38,264.72v18.13a1.07,1.07,0,0,1-1.07,1.06H243.21a1.07,1.07,0,0,1-1.07-1.06V1.44A1.06,1.06,0,0,1,243.21.38H402.29a1.05,1.05,0,0,1,1.06,1.06V19.56a1.06,1.06,0,0,1-1.06,1.07H264.68a1.07,1.07,0,0,0-1.07,1.06V129.74a1.07,1.07,0,0,0,1.07,1.06H392.16a1.07,1.07,0,0,1,1.07,1.07V150a1.07,1.07,0,0,1-1.07,1.07H264.68a1.06,1.06,0,0,0-1.07,1.06V262.59a1.07,1.07,0,0,0,1.07,1.07H404.31A1.07,1.07,0,0,1,405.38,264.72Z"/><path class="cls-9" d="M569,167.66H479.55a0,0,0,0,0,0,.05V283.87a0,0,0,0,1-.05,0H458.08a0,0,0,0,1,0,0V.42a0,0,0,0,1,0,0H568.63c45.65,0,83.84,36,85,81.64,1,39.42-25.59,72.87-62.29,82.79a.05.05,0,0,0,0,.07l70.41,119a0,0,0,0,1,0,.07H637.1l0,0L569,167.68Zm-89.49-20.3a0,0,0,0,0,0,0h90.28c34.43,0,62.38-28.36,62.38-63.19,0-35.24-28-63.59-62.38-63.59H479.55a0,0,0,0,0,0,0Z"/><path class="cls-9" d="M869.58,265.28v17a1.63,1.63,0,0,1-1.63,1.63H708a1.63,1.63,0,0,1-1.63-1.63V2A1.62,1.62,0,0,1,708,.38H865.92A1.62,1.62,0,0,1,867.55,2V19a1.63,1.63,0,0,1-1.63,1.63H729.44a1.63,1.63,0,0,0-1.63,1.63V129.17a1.63,1.63,0,0,0,1.63,1.63H855.8a1.63,1.63,0,0,1,1.63,1.63v17a1.63,1.63,0,0,1-1.63,1.63H729.44a1.62,1.62,0,0,0-1.63,1.62V262a1.63,1.63,0,0,0,1.63,1.63H868A1.63,1.63,0,0,1,869.58,265.28Z"/><path class="cls-9" d="M1015.8,167.32V283.68a.22.22,0,0,1-.22.23h-21a.23.23,0,0,1-.23-.23V167.32a.27.27,0,0,0,0-.12L891.26.72a.22.22,0,0,1,.19-.34h23.77a.25.25,0,0,1,.2.1l89.66,145.8a.22.22,0,0,0,.38,0L1094.72.48a.25.25,0,0,1,.2-.1h23.76a.23.23,0,0,1,.2.34l-103,166.48A.28.28,0,0,0,1015.8,167.32Z"/><path class="cls-9" d="M1317.57,265.39v16.79a1.72,1.72,0,0,1-1.73,1.73H1138.25a1.73,1.73,0,0,1-1.74-1.73v-18a1.8,1.8,0,0,1,.27-.93L1288,23.28a1.73,1.73,0,0,0-1.46-2.65H1142.3a1.73,1.73,0,0,1-1.73-1.73V2.11A1.72,1.72,0,0,1,1142.3.38h169.49a1.72,1.72,0,0,1,1.73,1.73v18a1.73,1.73,0,0,1-.26.92L1162.09,261a1.73,1.73,0,0,0,1.46,2.66h152.29A1.72,1.72,0,0,1,1317.57,265.39Z"/><path class="cls-9" d="M1387.65,1.18V283.11a.8.8,0,0,1-.8.8H1367a.8.8,0,0,1-.8-.8V1.18a.79.79,0,0,1,.8-.8h19.86A.8.8,0,0,1,1387.65,1.18Z"/><path class="cls-10" d="M1387.65,1.18V283.11a.8.8,0,0,1-.8.8H1367a.8.8,0,0,1-.8-.8V1.18a.79.79,0,0,1,.8-.8h19.86A.8.8,0,0,1,1387.65,1.18Z"/><path class="cls-9" d="M1946.59,20.63h-88a.58.58,0,0,0-.58.58V283.33a.57.57,0,0,1-.57.58h-20.72a.58.58,0,0,1-.58-.58V21.21a.57.57,0,0,0-.57-.58h-88a.58.58,0,0,1-.58-.58V1a.57.57,0,0,1,.58-.57h198.94a.57.57,0,0,1,.58.57v19.1A.58.58,0,0,1,1946.59,20.63Z"/><path d="M1689.42,66.83a2.87,2.87,0,0,1-5.37,1.51c-24-42.09-66.19-66.24-115.86-66.24-78.66,0-140.28,62.11-140.28,141.39s61.62,141.39,140.28,141.39c49.68,0,91.91-24.15,115.86-66.24a2.88,2.88,0,0,1,3.72-1.18,3,3,0,0,1,1.65,2.79v61.63a.06.06,0,0,0,.06.06h22.79a.06.06,0,0,0,.06-.06V2a.06.06,0,0,0-.06-.06h-22.79a.06.06,0,0,0-.06.06Zm-36.7,163a119.18,119.18,0,0,1-82.93,33.77q-4.27,0-8.58-.31a118.4,118.4,0,0,1-109.84-108,120.7,120.7,0,0,1,134.06-131,117.75,117.75,0,0,1,72.64,37.16,121.46,121.46,0,0,1-5.35,168.39Z"/></svg>